# xmcd CD database file
#
# Track frame offsets:
#	150
#	17954
#	35059
#	53462
#	76472
#	92787
#	112282
#	128231
#	145870
#	165796
#	185982
#	206389
#	226687
#	245928
#
# Disc length: 3528 seconds
#
# Revision: 0
# Processed by: cddbd v1.5.2PL0 Copyright (c) Steve Scherf et al.
# Submitted via: CDex 1.70beta2
#
DISCID=c10dc60e
DTITLE=Alexandr Misko - Beyond the Box
DYEAR=2017
DGENRE=New Age
TTITLE0=Forsaken (New Version)
TTITLE1=Caravan
TTITLE2=Imprisoned (Dubstep Guitar)
TTITLE3=Yerba Mate
TTITLE4=Strange Dance
TTITLE5=Treasured Memory
TTITLE6=Father's Words
TTITLE7=Billie Jean
TTITLE8=Foretaste
TTITLE9=4 Days of August
TTITLE10=Night Owl
TTITLE11=Wanderer
TTITLE12=Thunderstorm
TTITLE13=Careless Whisper
EXTD=YEAR: 2017
EXTT0=
EXTT1=
EXTT2=
EXTT3=
EXTT4=
EXTT5=
EXTT6=
EXTT7=
EXTT8=
EXTT9=
EXTT10=
EXTT11=
EXTT12=
EXTT13=
PLAYORDER=
